<?xml version="1.0" encoding="utf-8"?>
<!-- Generator: Adobe Illustrator 27.3.1, SVG Export Plug-In . SVG Version: 6.00 Build 0)  -->
<svg version="1.1" id="Layer_1" xmlns="http://www.w3.org/2000/svg" xmlns:xlink="http://www.w3.org/1999/xlink" x="0px" y="0px"
	 viewBox="0 0 304 255.8" style="enable-background:new 0 0 304 255.8;" xml:space="preserve">
<g>
	<path d="M300.9,60.6c-5.7-11.3-15.6-17-29.5-17c-47.2,0-94.5,0-141.7,0l-48,0c-0.4,0-0.8,0-1.2,0c-0.9,0-1.8,0-2.7,0
		c0-0.1,0-0.2-0.1-0.3c-1-5.6-2.1-11.3-3.3-16.8c-0.4-1.9-0.8-3.8-1.1-5.7C71,9.1,62,0.9,50.9,0.4C39.4-0.2,27.8,0,16.6,0.2
		l-4.4,0.1C7,0.3,2.8,3.4,0.9,8.4c-1.7,4.7-1,9.2,2.1,12.9c2.7,3.3,6.6,4.9,11.7,4.9c0,0,0,0,0.1,0c3.6,0,7.2,0,10.8,0
		c6.8,0,13.8,0,20.7-0.1c1.3,0,1.6,0.2,1.6,0.2c0,0,0.3,0.3,0.5,1.4c9.3,45.5,18.5,94.9,29,155.2c3.4,19.8,14.3,28.9,34.1,28.9
		l88.3,0c7,0,13.9,0,20.9,0c9.5,0,19,0,28.6,0c15.3,0,26.8-9.2,30.2-23.9c5.1-22.5,10.2-45.4,15.1-67.6c2.9-13,5.8-25.9,8.7-38.9
		C304.8,73.9,304.1,66.8,300.9,60.6z M270.1,69.7l0.4,0c1.7,0,3.2,0,4.5,0.4c1.8,0.5,3.9,1.9,3.2,5c-4.4,20-8.8,40-13.2,59.9
		l-2.3,10.5c-1.3,5.9-2.6,11.8-3.9,17.7c-1.3,5.9-2.6,11.8-3.9,17.7c-1,4.3-1.7,4.9-6.2,4.9c-46.4,0-92.8,0-139.1,0
		c-4.5,0-5.4-0.8-6.2-5.2c-4.6-25.5-9.1-51-13.7-76.4l-1.2-6.5C86.7,88.5,85,79,83.2,69.6c24.9,0.1,50.1,0.1,74.5,0.1l16.4,0v0
		H270.1z"/>
	<path d="M238.4,217.4C238.4,217.4,238.4,217.4,238.4,217.4c-10.9,0-19.4,8.4-19.4,19.2c0,5.2,2,10,5.5,13.6
		c3.7,3.7,8.7,5.7,14.1,5.7c0,0,0.1,0,0.1,0c5.1,0,10-2.1,13.7-5.8c3.6-3.7,5.6-8.5,5.6-13.5C257.8,225.9,249.1,217.4,238.4,217.4z"
		/>
	<path d="M120.4,217.4C120.4,217.4,120.4,217.4,120.4,217.4c-5.2,0-10.3,2.2-14,5.9c-3.6,3.7-5.5,8.4-5.4,13.3
		c0.2,10.8,8.7,19.2,19.4,19.2c0,0,0,0,0,0c5.3,0,10.3-2,13.9-5.6c3.6-3.6,5.6-8.5,5.6-13.8c0-5.2-2-10-5.7-13.5
		C130.5,219.3,125.6,217.4,120.4,217.4z"/>
</g>
</svg>
